<svg width="60" height="33" viewBox="0 0 60 33" fill="none" xmlns="http://www.w3.org/2000/svg">
<path d="M60 15.1424H54.3719L47.9397 22.6131L50.0168 25.9631L54.3049 32.4623H59.933L53.2663 22.8141L60 15.1424Z" fill="#000"/>
<path d="M40.6168 15.1424V25.4941L40.5833 25.3936C40.5833 27.2697 39.0087 28.7437 36.9652 28.7437C35.0221 28.7437 33.6821 27.2697 33.6821 25.1256V15.1424H28.9585V26.1642C28.9585 30.0837 31.6386 32.8643 35.3907 32.8643C37.6352 32.8643 39.5783 31.8593 40.6168 30.2848V32.4623H45.5079V15.1424H40.6168Z" fill="#000"/>
<path d="M18.8094 32.8643C23.064 32.8643 25.8445 30.6868 25.8445 27.2697C25.8445 23.4841 22.5279 22.4791 19.5464 21.7085C17.2013 21.072 16.4978 20.804 16.4978 19.866C16.4978 19.263 17.3353 18.8275 18.5413 18.8275C20.0154 18.8275 21.8244 19.397 23.399 20.3685L25.3755 16.8844C23.466 15.6114 21.0204 14.7404 18.5413 14.7404C14.4542 14.7404 11.7407 17.0854 11.7742 20.3685C11.8077 23.7856 14.5547 24.7571 18.1058 25.6281C19.8814 26.0972 21.1544 26.4322 21.1544 27.5042C21.1544 28.2747 20.2164 28.8107 18.9099 28.8107C16.5983 28.8107 14.6553 27.9732 13.1142 26.8677L11.0037 30.2513C13.0807 31.9263 16.0288 32.8643 18.8094 32.8643Z" fill="#000"/>
<path d="M3.14917 32.4623H8.04029V15.1424H3.14917V32.4623Z" fill="#000"/>
<path d="M5.69514 11.3903C8.84048 11.3903 11.3903 8.84048 11.3903 5.69514C11.3903 2.5498 8.84048 0 5.69514 0C2.5498 0 -7.15748e-06 2.5498 -7.15748e-06 5.69514C-7.15748e-06 8.84048 2.5498 11.3903 5.69514 11.3903Z" fill="#FFCC00"/>
<path d="M5.694 5.69505C4.69568 5.69648 3.71527 5.96031 2.85106 6.46009C1.98684 6.95987 1.26918 7.67804 0.770016 8.54261C1.26917 9.40718 1.98682 10.1253 2.85103 10.6251C3.71524 11.1249 4.69563 11.3888 5.69395 11.3902C6.69264 11.3891 7.6735 11.1255 8.53812 10.6257C9.40275 10.1259 10.1208 9.40751 10.6201 8.54261C10.1208 7.67773 9.40274 6.95934 8.53812 6.45955C7.67351 5.95975 6.69268 5.69611 5.694 5.69505V5.69505Z" fill="#FF7F2A"/>
</svg>
