<svg width="360" height="76" viewBox="0 0 360 76" fill="none" xmlns="http://www.w3.org/2000/svg">
<g clip-path="url(#clip0)">
<path d="M17 8.5L8 49.5H4L43 66L69 58C66.3333 49.8333 60.7 32.8 59.5 30C58.3 27.2 55 45.1667 53.5 54.5L43 49.5L36.5 22.5L27.5 49.5L17 8.5Z" fill="#27AE60"/>
<path d="M288 0L279 41H275L314 57.5C368.572 40.7087 314.287 41.1365 314 41L307.5 14L298.5 41L288 0Z" fill="#27AE60"/>
<path d="M39 67.3246C148.316 1.24677 228.988 29.3336 348 81.3247L83.5 111.825L39 67.3246Z" fill="#F8B080"/>
<path d="M-10.5 42.5C118.692 54.5124 192.083 57.0946 311.5 105L-4 133.5L-10.5 42.5Z" fill="#FFA76D"/>
<path d="M102 75.9995H360V41.3294C246.41 21.2327 102 75.9995 102 75.9995Z" fill="#FFB787"/>
</g>
<defs>
<clipPath id="clip0">
<rect width="360" height="76" fill="white"/>
</clipPath>
</defs>
</svg>
